<svg xmlns="http://www.w3.org/2000/svg" height="48" width="48"><path d="m37.2 40.05-3.15-3.15q-.65-.6-.65-1.5t.65-1.5q.55-.55 1.425-.55T37 33.9l3.15 3.15q.55.65.55 1.55t-.55 1.45q-.65.6-1.55.6t-1.4-.6ZM12 39.5q-3.1 0-5.3-2.2-2.2-2.2-2.2-5.3 0-3.1 2.2-5.3 2.2-2.2 5.3-2.2 2.1 0 3.875 1.15t2.575 3l.75 1.75h1.75q1.9 0 3.225 1.325Q25.5 33.05 25.5 35q0 1.9-1.325 3.2Q22.85 39.5 21 39.5Zm16.35-4.65q-.2-3-2.25-5.15-2.05-2.15-5-2.25-.9-2.75-3.325-4.375Q15.35 21.45 12.4 21.55q.7-4.15 4.025-6.775T24 12.15q4.95 0 8.4 3.45t3.45 8.4q0 3.65-2.075 6.625T28.35 34.85Zm11.8-8.8q-.85 0-1.45-.6T38.1 24q0-.85.6-1.475.6-.625 1.45-.625h4.5q.85 0 1.475.625.625.625.625 1.475 0 .85-.625 1.45t-1.475.6ZM11.15 14l-3.2-3.2q-.6-.55-.6-1.425t.6-1.475q.55-.55 1.45-.55.9 0 1.45.55l3.2 3.2q.6.6.6 1.475 0 .875-.6 1.425-.6.65-1.475.65-.875 0-1.425-.65ZM34 14q-.65-.55-.65-1.425T34 11.05l3.15-3.15q.55-.55 1.45-.55.9 0 1.5.55.55.6.55 1.475 0 .875-.55 1.425L36.9 14q-.6.65-1.475.65-.875 0-1.425-.65ZM24 9.9q-.85 0-1.45-.6t-.6-1.45v-4.5q0-.85.6-1.475.6-.625 1.45-.625t1.475.625q.625.625.625 1.475v4.5q0 .85-.625 1.45T24 9.9Z"/></svg>