<?xml version="1.0" encoding="utf-8"?>
<!-- Generator: Adobe Illustrator 27.0.0, SVG Export Plug-In . SVG Version: 6.00 Build 0)  -->
<svg version="1.1" id="Layer_1" xmlns="http://www.w3.org/2000/svg" xmlns:xlink="http://www.w3.org/1999/xlink" x="0px" y="0px"
	 viewBox="0 0 48 48" style="enable-background:new 0 0 48 48;" xml:space="preserve">
<g>
	<path d="M45.1,22.7c-1.2-1.2-2.7-1.9-4.5-2.1v-0.9c-0.1-2.8-1.2-5.2-3.1-7.2c-1.9-2-4.3-3-7.1-3c-2.4,0-4.5,0.8-6.4,2.3
		c-0.4,0.3-0.8,0.7-1.1,1c1.2,0.6,2.3,1.4,3.3,2.4c2.1,2.2,3.4,4.8,3.7,7.7c1.5,0.4,2.8,1.2,4,2.4c1.6,1.7,2.4,3.7,2.4,6.1
		c0,0.9-0.1,1.7-0.3,2.5h4.3c1.8,0,3.4-0.7,4.7-2c1.3-1.3,2-2.9,2-4.7C46.9,25.5,46.3,24,45.1,22.7z"/>
	<path d="M9.4,38.3c-2.3,0-4.2-0.8-5.8-2.4s-2.4-3.5-2.4-5.9c0-2,0.6-3.7,1.8-5.3s2.8-2.5,4.7-2.8c0.6-2.4,1.8-4.4,3.6-5.9
		s4-2.3,6.4-2.3c2.8,0,5.1,1,7.1,3s3,4.4,3.1,7.2v0.9c1.8,0.1,3.3,0.8,4.5,2.1c1.2,1.2,1.8,2.8,1.8,4.6c0,1.8-0.7,3.4-2,4.7
		c-1.3,1.3-2.9,2-4.7,2H9.4z"/>
</g>
</svg>
