<?xml version="1.0" encoding="utf-8"?>
<!-- Generator: Adobe Illustrator 27.0.0, SVG Export Plug-In . SVG Version: 6.00 Build 0)  -->
<svg version="1.1" id="Layer_1" xmlns="http://www.w3.org/2000/svg" xmlns:xlink="http://www.w3.org/1999/xlink" x="0px" y="0px"
	 viewBox="0 0 48 48" style="enable-background:new 0 0 48 48;" xml:space="preserve">
<path d="M15.1,43.5c-0.6,0.2-1.1,0.3-1.6,0.1s-0.9-0.5-1.2-1l-2.4-5.2c-0.2-0.5-0.3-1.1-0.1-1.6s0.5-1,1.1-1.2
	c0.6-0.2,1.1-0.3,1.6-0.1c0.5,0.2,0.9,0.5,1.2,1.1l2.4,5.3c0.2,0.5,0.3,1.1,0.1,1.6C16.1,42.8,15.7,43.2,15.1,43.5z M14.5,31.2
	c-3,0-5.6-1.1-7.8-3.2s-3.2-4.8-3.2-7.8c0-2.8,1-5.2,2.9-7.4s4.3-3.3,7.2-3.6c1.1-1.9,2.6-3.4,4.4-4.5S21.8,3,24,3
	c3.1,0,5.7,1,7.8,2.9s3.5,4.3,4.1,7.2c2.7,0.2,4.8,1.2,6.4,2.9c1.5,1.7,2.3,3.8,2.3,6.1c0,2.5-0.9,4.6-2.7,6.4s-3.9,2.6-6.5,2.6
	L14.5,31.2z"/>
<path d="M23.7,46.5c-0.6,0.2-1.1,0.3-1.6,0.1c-0.5-0.2-0.9-0.5-1.2-1.1l-1.1-2.9c-0.2-0.5-0.3-1.1-0.1-1.6s0.5-1,1.1-1.2
	c0.6-0.2,1.1-0.3,1.6-0.1c0.5,0.2,0.9,0.5,1.2,1.1l1.1,2.9c0.2,0.5,0.3,1.1,0.1,1.6C24.6,45.8,24.2,46.2,23.7,46.5z"/>
<path d="M31.7,43.5c-0.6,0.2-1.1,0.3-1.6,0.1c-0.5-0.2-0.9-0.5-1.2-1l-2.4-5.2c-0.2-0.5-0.3-1.1-0.1-1.6c0.2-0.5,0.5-1,1.1-1.2
	c0.6-0.2,1.1-0.3,1.6-0.1c0.5,0.2,0.9,0.5,1.2,1.1l2.4,5.3c0.2,0.5,0.3,1.1,0.1,1.6S32.3,43.2,31.7,43.5z"/>
<path d="M40.2,46.5c-0.6,0.2-1.1,0.3-1.7,0.1c-0.5-0.2-0.9-0.5-1.2-1.1l-1.1-2.9c-0.2-0.5-0.3-1.1-0.1-1.6s0.5-1,1.1-1.2
	c0.6-0.2,1.1-0.3,1.6-0.1c0.5,0.2,0.9,0.5,1.2,1.1l1.1,2.9c0.2,0.5,0.3,1.1,0.1,1.6C41.1,45.8,40.8,46.2,40.2,46.5z"/>
</svg>
