<?xml version="1.0" encoding="utf-8"?>
<!-- Generator: Adobe Illustrator 27.0.0, SVG Export Plug-In . SVG Version: 6.00 Build 0)  -->
<svg version="1.1" id="Layer_1" xmlns="http://www.w3.org/2000/svg" xmlns:xlink="http://www.w3.org/1999/xlink" x="0px" y="0px"
	 viewBox="0 0 48 48" style="enable-background:new 0 0 48 48;" xml:space="preserve">
<path d="M16.7,44.2c-0.4,0.2-0.7,0.2-1.1,0c-0.3-0.1-0.6-0.4-0.8-0.7l-0.7-1.9c-0.2-0.3-0.2-0.7-0.1-1c0.1-0.3,0.3-0.6,0.7-0.8
	c0.4-0.2,0.7-0.2,1.1-0.1c0.3,0.1,0.6,0.3,0.8,0.7l0.7,1.9c0.2,0.3,0.2,0.7,0.1,1.1S17.1,44,16.7,44.2z"/>
<path d="M21.9,42.3c-0.4,0.2-0.7,0.2-1.1,0.1s-0.6-0.3-0.8-0.7l-1.6-3.4c-0.2-0.3-0.2-0.7-0.1-1c0.1-0.3,0.3-0.6,0.7-0.8
	c0.4-0.2,0.7-0.2,1.1-0.1s0.6,0.3,0.8,0.7l1.6,3.5c0.2,0.3,0.2,0.7,0.1,1C22.6,41.8,22.3,42.1,21.9,42.3z"/>
<path d="M27.5,44.2c-0.4,0.2-0.7,0.2-1.1,0c-0.3-0.1-0.6-0.4-0.8-0.7L25,41.7c-0.2-0.3-0.2-0.7-0.1-1c0.1-0.3,0.3-0.6,0.7-0.8
	c0.4-0.2,0.7-0.2,1.1-0.1c0.3,0.1,0.6,0.3,0.8,0.7l0.7,1.9c0.2,0.3,0.2,0.7,0.1,1.1S27.9,44,27.5,44.2z"/>
<g>
	<path d="M11.1,42.3c-0.4,0.2-0.7,0.2-1.1,0.1S9.4,42,9.2,41.6l-1.6-3.4c-0.2-0.3-0.2-0.7-0.1-1c0.1-0.3,0.3-0.6,0.7-0.8
		c0.4-0.2,0.7-0.2,1.1-0.1c0.3,0.1,0.6,0.3,0.8,0.7l1.6,3.5c0.2,0.3,0.2,0.7,0.1,1C11.7,41.8,11.5,42.1,11.1,42.3z"/>
</g>
<g>
	<path d="M30.4,7.4c0.4,0,0.7-0.1,1-0.4c0.3-0.3,0.4-0.6,0.4-1V2.9c0-0.4-0.1-0.8-0.4-1c-0.3-0.3-0.6-0.4-1-0.4s-0.7,0.1-1,0.4
		S29,2.5,29,2.9V6c0,0.4,0.1,0.7,0.4,1C29.7,7.3,30,7.4,30.4,7.4z"/>
	<path d="M38.2,10.7c0.4,0,0.7-0.1,1-0.4L41.5,8c0.3-0.3,0.4-0.6,0.4-1s-0.1-0.7-0.4-1c-0.3-0.3-0.6-0.4-1-0.4s-0.7,0.1-1,0.4
		l-2.2,2.2c-0.3,0.3-0.4,0.6-0.4,1s0.1,0.7,0.4,1C37.5,10.5,37.8,10.7,38.2,10.7z"/>
	<path d="M21.5,10.2c0.3,0.3,0.6,0.4,1,0.4c0.4,0,0.7-0.1,1-0.4c0.3-0.3,0.4-0.6,0.4-1c0-0.4-0.1-0.8-0.4-1L21.3,6
		c-0.3-0.3-0.6-0.4-1-0.4s-0.7,0.1-1,0.4c-0.3,0.3-0.4,0.6-0.4,1c0,0.4,0.1,0.7,0.4,1L21.5,10.2z"/>
	<path d="M45.6,16.1c-0.3-0.3-0.6-0.4-1-0.4h-3.1c-0.4,0-0.7,0.1-1,0.4s-0.4,0.6-0.4,1c0,0.4,0.1,0.7,0.4,1c0.3,0.3,0.6,0.4,1,0.4
		h3.1c0.4,0,0.8-0.1,1-0.4c0.3-0.3,0.4-0.6,0.4-1C46,16.7,45.9,16.4,45.6,16.1z"/>
	<path d="M39.3,23.9c-0.3-0.3-0.6-0.4-1-0.4s-0.7,0.1-1,0.4c-0.3,0.3-0.4,0.6-0.4,1s0.1,0.7,0.4,1l2.2,2.2c0.3,0.3,0.6,0.4,1,0.4
		c0.4,0,0.8-0.1,1-0.4c0.3-0.3,0.4-0.6,0.4-1c0-0.4-0.1-0.8-0.4-1L39.3,23.9z"/>
	<path d="M36.2,11.3C34.6,9.7,32.6,9,30.4,9s-4.2,0.8-5.8,2.4c-1.2,1.2-1.9,2.5-2.2,4.1c0.3,0.2,0.7,0.5,1,0.8
		c1.4,1.2,2.3,2.7,2.9,4.4c1.6,0.4,3,1.2,4.1,2.4c0.6,0.7,1.1,1.4,1.4,2.2c1.7-0.3,3.1-1,4.4-2.3c1.6-1.6,2.4-3.5,2.4-5.8
		C38.5,14.8,37.7,12.9,36.2,11.3z"/>
</g>
<g>
	<path d="M10.7,34.2c-2,0-3.7-0.7-5.1-2.1c-1.4-1.4-2.1-3.1-2.1-5.1c0-1.8,0.6-3.4,1.9-4.8s2.8-2.2,4.7-2.4c0.7-1.2,1.7-2.2,2.9-2.9
		s2.5-1.1,4-1.1c2,0,3.7,0.6,5.1,1.9c1.4,1.3,2.3,2.8,2.7,4.7c1.8,0.1,3.2,0.8,4.2,1.9c1,1.1,1.5,2.5,1.5,4c0,1.6-0.6,3-1.7,4.2
		c-1.2,1.2-2.6,1.7-4.2,1.7L10.7,34.2z"/>
</g>
</svg>
