<?xml version="1.0" encoding="utf-8"?>
<!-- Generator: Adobe Illustrator 27.0.0, SVG Export Plug-In . SVG Version: 6.00 Build 0)  -->
<svg version="1.1" id="Layer_1" xmlns="http://www.w3.org/2000/svg" xmlns:xlink="http://www.w3.org/1999/xlink" x="0px" y="0px"
	 viewBox="0 0 48 48" style="enable-background:new 0 0 48 48;" xml:space="preserve">
<path d="M16.7,44.2c-0.4,0.2-0.7,0.2-1.1,0c-0.3-0.1-0.6-0.4-0.8-0.7l-0.7-1.9c-0.2-0.3-0.2-0.7-0.1-1c0.1-0.3,0.3-0.6,0.7-0.8
	c0.4-0.2,0.7-0.2,1.1-0.1c0.3,0.1,0.6,0.3,0.8,0.7l0.7,1.9c0.2,0.3,0.2,0.7,0.1,1.1S17.1,44,16.7,44.2z"/>
<path d="M21.9,42.3c-0.4,0.2-0.7,0.2-1.1,0.1s-0.6-0.3-0.8-0.7l-1.6-3.4c-0.2-0.3-0.2-0.7-0.1-1c0.1-0.3,0.3-0.6,0.7-0.8
	c0.4-0.2,0.7-0.2,1.1-0.1s0.6,0.3,0.8,0.7l1.6,3.5c0.2,0.3,0.2,0.7,0.1,1C22.6,41.8,22.3,42.1,21.9,42.3z"/>
<path d="M27.5,44.2c-0.4,0.2-0.7,0.2-1.1,0c-0.3-0.1-0.6-0.4-0.8-0.7L25,41.7c-0.2-0.3-0.2-0.7-0.1-1c0.1-0.3,0.3-0.6,0.7-0.8
	c0.4-0.2,0.7-0.2,1.1-0.1c0.3,0.1,0.6,0.3,0.8,0.7l0.7,1.9c0.2,0.3,0.2,0.7,0.1,1.1S27.9,44,27.5,44.2z"/>
<g>
	<path d="M11.1,42.3c-0.4,0.2-0.7,0.2-1.1,0.1S9.4,42,9.2,41.6l-1.6-3.4c-0.2-0.3-0.2-0.7-0.1-1c0.1-0.3,0.3-0.6,0.7-0.8
		c0.4-0.2,0.7-0.2,1.1-0.1c0.3,0.1,0.6,0.3,0.8,0.7l1.6,3.5c0.2,0.3,0.2,0.7,0.1,1C11.7,41.8,11.5,42.1,11.1,42.3z"/>
</g>
<path d="M38.9,17.4c-2.1-0.6-4-1.7-5.5-3.3c-1.6-1.6-2.7-3.4-3.3-5.5s-0.7-4.3-0.4-6.5c-3.3,0.6-6,2.1-8.2,4.7c-1.8,2-2.8,4.4-3.1,7
	c1.9,0.3,3.5,1,4.9,2.3c1.4,1.2,2.3,2.7,2.9,4.4c1.6,0.4,3,1.2,4.1,2.4c1.3,1.5,2,3.3,2,5.3c0,0.4,0,0.7-0.1,1
	c3.2-0.1,6-1.1,8.5-3.2c2.5-2.1,4.1-4.9,4.6-8.1C43.2,18.2,41.1,18,38.9,17.4z"/>
<g>
	<path d="M10.7,33.2c-1.7,0-3.2-0.6-4.4-1.8c-1.2-1.2-1.8-2.7-1.8-4.4c0-1.6,0.5-2.9,1.6-4.1c1.1-1.2,2.4-1.9,4-2l0.5,0l0.3-0.4
		c0.7-1.1,1.5-2,2.6-2.6c1-0.6,2.2-0.9,3.5-0.9c1.8,0,3.2,0.5,4.4,1.6c1.2,1.1,2,2.5,2.4,4.2l0.2,0.7l0.8,0.1
		c1.5,0.1,2.7,0.6,3.5,1.6c0.9,1,1.3,2,1.3,3.3c0,1.4-0.5,2.5-1.4,3.5c-1,1-2.1,1.4-3.5,1.4H10.7z"/>
	<path d="M16.9,17.7c1.5,0,2.7,0.5,3.8,1.4c1.1,1,1.8,2.2,2.1,3.6l0.3,1.5l1.5,0.1c1.2,0.1,2.2,0.5,2.8,1.2c0.7,0.8,1,1.6,1,2.7
		c0,1.1-0.4,2-1.1,2.8c-0.8,0.8-1.7,1.1-2.8,1.1H10.7c-1.4,0-2.7-0.5-3.7-1.5c-1-1-1.5-2.2-1.5-3.7c0-1.3,0.4-2.4,1.4-3.5
		c0.9-1,2-1.6,3.4-1.7l1-0.1l0.5-0.9c0.6-1,1.3-1.7,2.2-2.3C14.8,18,15.8,17.7,16.9,17.7 M16.9,15.7c-1.5,0-2.8,0.4-4,1.1
		c-1.2,0.7-2.2,1.7-2.9,2.9c-1.9,0.2-3.4,1-4.7,2.4c-1.3,1.4-1.9,3-1.9,4.8c0,2,0.7,3.7,2.1,5.1c1.4,1.4,3.1,2.1,5.1,2.1h13.8
		c1.7,0,3.1-0.6,4.2-1.7c1.2-1.2,1.7-2.6,1.7-4.2c0-1.5-0.5-2.9-1.5-4c-1-1.1-2.4-1.8-4.2-1.9c-0.4-1.9-1.3-3.4-2.7-4.7
		C20.6,16.4,18.9,15.7,16.9,15.7L16.9,15.7z"/>
</g>
</svg>
