<svg xmlns="http://www.w3.org/2000/svg" height="48" width="48"><path d="M22.1 35.35 16.4 41q-.55.6-1.375.575-.825-.025-1.325-.525-.6-.55-.6-1.375t.6-1.375l8.4-8.4v-4h-4l-8.25 8.25q-.5.55-1.325.55T7.2 34.2q-.6-.55-.6-1.375t.6-1.375l5.45-5.55h-7.2q-.8 0-1.35-.55t-.55-1.4q0-.7.575-1.275T5.5 22.1h7.15L7 16.4q-.6-.5-.6-1.35 0-.85.55-1.4.55-.5 1.375-.5t1.375.5l8.4 8.45h4V18l-8.25-8.15q-.55-.5-.525-1.325.025-.825.525-1.375.55-.55 1.375-.55t1.375.6l5.5 5.4V5.45q0-.75.55-1.325t1.4-.575q.7 0 1.275.575T25.9 5.45v7.15l5.7-5.65q.5-.55 1.35-.525.85.025 1.4.525.45.55.45 1.375T34.3 9.7L25.9 18v4.1h4.05l8.25-8.25q.5-.55 1.325-.525.825.025 1.375.525.55.55.55 1.375t-.6 1.325L35.4 22.1h7.15q.75 0 1.325.575t.575 1.275q0 .85-.575 1.4-.575.55-1.325.55H35.4l5.55 5.7q.6.55.575 1.35-.025.8-.525 1.3-.6.65-1.375.625-.775-.025-1.325-.575l-8.35-8.4H25.9v4l8.45 8.5q.5.5.5 1.325T34.3 41q-.55.6-1.35.625-.8.025-1.3-.575l-5.75-5.7v7.2q0 .8-.575 1.35t-1.275.55q-.85 0-1.4-.575-.55-.575-.55-1.375Z"/></svg>